<?xml version="1.0" encoding="utf-8"?>
<!-- Generator: Adobe Illustrator 22.0.1, SVG Export Plug-In . SVG Version: 6.00 Build 0)  -->
<svg version="1.1" id="Layer_1" xmlns="http://www.w3.org/2000/svg" xmlns:xlink="http://www.w3.org/1999/xlink" x="0px" y="0px"
	 viewBox="0 0 400 100" style="enable-background:new 0 0 400 100;" xml:space="preserve">
<style type="text/css">
	.st0{fill:none;stroke:#EF4823;stroke-miterlimit:10;}
	.st1{fill:#929D9F;}
	.st2{fill:#EF4823;}
</style>
<g>
	<path class="st0" d="M314,44.9l-15.3-8.8c-1.1,2.1-1.9,4.4-2.3,6.9l17.5,2.3C313.9,45.2,313.9,45,314,44.9z"/>
	<path class="st0" d="M315.6,43.3L311,26.3c-2.4,0.7-4.6,1.8-6.5,3.2l10.8,14C315.4,43.4,315.5,43.4,315.6,43.3z"/>
	<path class="st0" d="M314.6,44l-10.8-14c-1.9,1.5-3.5,3.4-4.8,5.5l15.3,8.8C314.5,44.1,314.5,44,314.6,44z"/>
	<path class="st0" d="M314.1,47.1l-17,4.6c0.7,2.3,1.8,4.5,3.3,6.4l13.9-10.7C314.2,47.3,314.2,47.2,314.1,47.1z"/>
	<path class="st0" d="M319.1,45l17-4.6c-0.6-2.3-1.7-4.5-3.1-6.4l-14,10.8C319,44.9,319.1,44.9,319.1,45z"/>
	<path class="st0" d="M318.6,44.1l14-10.8c-1.5-1.9-3.3-3.5-5.3-4.8l-8.8,15.4C318.5,44,318.5,44.1,318.6,44.1z"/>
	<path class="st0" d="M319.2,45.9C319.2,45.9,319.2,46,319.2,45.9l17.5,2.3c0.1-0.8,0.1-1.6,0.1-2.4c0-1.6-0.2-3.2-0.5-4.7
		l-17.1,4.6C319.2,45.8,319.2,45.8,319.2,45.9z"/>
	<path class="st0" d="M317.8,43.5l8.8-15.3c-2.1-1.2-4.4-2-6.8-2.4l-2.3,17.6C317.6,43.4,317.7,43.4,317.8,43.5z"/>
	<path class="st0" d="M319,46.9l15.3,8.8c1.1-2,1.9-4.3,2.3-6.7l-17.5-2.3C319.1,46.8,319.1,46.9,319,46.9z"/>
	<path class="st0" d="M316.5,43.2c0.1,0,0.1,0,0.2,0l2.3-17.5c-0.8-0.1-1.6-0.1-2.4-0.1c-1.7,0-3.3,0.2-4.8,0.6l4.6,17.1
		C316.4,43.2,316.5,43.2,316.5,43.2z"/>
	<path class="st0" d="M313.8,46.1l-17.5-2.3c-0.1,0.7-0.1,1.4-0.1,2c0,1.8,0.2,3.5,0.7,5.2l17-4.6C313.8,46.3,313.8,46.2,313.8,46.1
		z"/>
	<path class="st0" d="M316.8,48.6l-2.3,17.5c0.7,0.1,1.3,0.1,2,0.1c1.7,0,3.4-0.2,5.1-0.6l-4.6-17C316.9,48.6,316.9,48.6,316.8,48.6
		z"/>
	<path class="st0" d="M317.7,48.3l4.6,17c2.3-0.7,4.4-1.8,6.3-3.2l-10.7-13.9C317.9,48.3,317.8,48.3,317.7,48.3z"/>
	<path class="st0" d="M314.8,48l-14,10.8c1.5,1.8,3.4,3.4,5.5,4.6l8.8-15.2C315,48.1,314.9,48.1,314.8,48z"/>
	<path class="st0" d="M318.6,47.6c0,0.1-0.1,0.1-0.1,0.1l10.7,13.9c1.8-1.5,3.4-3.3,4.7-5.3L318.6,47.6z"/>
	<path class="st0" d="M315.8,48.5L307,63.8c2.1,1.1,4.4,1.9,6.8,2.2l2.3-17.4C315.9,48.5,315.8,48.5,315.8,48.5z"/>
	<path class="st0" d="M316.5,48.6c-0.2,0-0.3,0-0.5-0.1L313.8,66c0.3,0,0.5,0.1,0.8,0.1l2.3-17.5C316.7,48.6,316.6,48.6,316.5,48.6z
		"/>
	<path class="st0" d="M317.5,43.4l2.3-17.6c-0.3,0-0.5-0.1-0.8-0.1l-2.3,17.5C317,43.2,317.2,43.3,317.5,43.4z"/>
	<path class="st0" d="M313.8,45.9c0-0.2,0-0.4,0.1-0.6L296.4,43c0,0.3-0.1,0.5-0.1,0.8l17.5,2.3C313.8,46,313.8,45.9,313.8,45.9z"/>
	<path class="st0" d="M319.1,46.7l17.5,2.3c0-0.3,0.1-0.5,0.1-0.8L319.2,46C319.2,46.2,319.2,46.5,319.1,46.7z"/>
	<path class="st0" d="M314.3,47.4l-13.9,10.7c0.2,0.2,0.3,0.4,0.5,0.6l14-10.8C314.6,47.8,314.4,47.6,314.3,47.4z"/>
	<path class="st0" d="M319,44.8L333,34c-0.2-0.2-0.3-0.4-0.5-0.6l-14,10.8C318.7,44.3,318.9,44.5,319,44.8z"/>
	<path class="st0" d="M317.9,48.2l10.7,13.9c0.2-0.2,0.4-0.3,0.6-0.5l-10.7-13.9C318.3,47.9,318.1,48.1,317.9,48.2z"/>
	<path class="st0" d="M315.2,43.5l-10.8-14c-0.2,0.2-0.4,0.3-0.6,0.5l10.8,14C314.8,43.8,315,43.6,315.2,43.5z"/>
	<path class="st0" d="M317,48.6l4.6,17c0.2-0.1,0.5-0.1,0.7-0.2l-4.6-17C317.5,48.4,317.3,48.5,317,48.6z"/>
	<path class="st0" d="M316.3,43.2l-4.6-17.1c-0.2,0.1-0.5,0.1-0.7,0.2l4.6,17.1C315.8,43.3,316.1,43.2,316.3,43.2z"/>
	<path class="st0" d="M313.9,46.4l-17,4.6c0.1,0.2,0.1,0.5,0.2,0.7l17-4.6C314,46.9,313.9,46.7,313.9,46.4z"/>
	<path class="st0" d="M319.2,45.8l17.1-4.6c-0.1-0.3-0.1-0.5-0.2-0.7l-17,4.6C319.2,45.2,319.2,45.5,319.2,45.8z"/>
	<path class="st0" d="M315.1,48.2l-8.8,15.2c0.2,0.1,0.4,0.3,0.7,0.4l8.8-15.3C315.5,48.4,315.3,48.3,315.1,48.2z"/>
	<path class="st0" d="M318.4,43.9l8.8-15.4c-0.2-0.1-0.4-0.3-0.7-0.4l-8.8,15.3C318,43.6,318.2,43.7,318.4,43.9z"/>
	<path class="st0" d="M314.4,44.3l-15.3-8.8c-0.1,0.2-0.3,0.4-0.4,0.7l15.3,8.8C314.1,44.7,314.2,44.5,314.4,44.3z"/>
	<path class="st0" d="M318.6,47.6l15.3,8.8c0.1-0.2,0.3-0.4,0.4-0.7L319,46.9C318.9,47.2,318.8,47.4,318.6,47.6z"/>
	<path class="st0" d="M316.5,21.8c-13.3,0-24,10.8-24,24s10.8,24,24,24c13.3,0,24-10.8,24-24S329.8,21.8,316.5,21.8z M316.5,67.4
		c-11.9,0-21.5-9.6-21.5-21.5c0-11.9,9.6-21.5,21.5-21.5c11.9,0,21.5,9.6,21.5,21.5C338,57.8,328.4,67.4,316.5,67.4z"/>
	<path class="st0" d="M338,45.9c0-11.9-9.6-21.5-21.5-21.5c-11.9,0-21.5,9.6-21.5,21.5c0,11.9,9.6,21.5,21.5,21.5
		C328.4,67.4,338,57.8,338,45.9z M329.3,61.7c-0.2,0.2-0.4,0.3-0.6,0.5c-1.9,1.4-4,2.5-6.3,3.2c-0.2,0.1-0.5,0.1-0.7,0.2
		c-1.6,0.4-3.3,0.6-5.1,0.6c-0.7,0-1.3,0-2-0.1c-0.3,0-0.5-0.1-0.8-0.1c-2.4-0.3-4.7-1.1-6.8-2.2c-0.2-0.1-0.5-0.2-0.7-0.4
		c-2.1-1.2-3.9-2.8-5.5-4.6c-0.2-0.2-0.3-0.4-0.5-0.6c-1.5-1.9-2.6-4.1-3.3-6.4c-0.1-0.2-0.1-0.5-0.2-0.7c-0.4-1.7-0.7-3.4-0.7-5.2
		c0-0.7,0-1.4,0.1-2c0-0.3,0.1-0.5,0.1-0.8c0.3-2.5,1.1-4.8,2.3-6.9c0.1-0.2,0.3-0.4,0.4-0.7c1.3-2.1,2.9-4,4.8-5.5
		c0.2-0.2,0.4-0.3,0.6-0.5c1.9-1.4,4.2-2.5,6.5-3.2c0.2-0.1,0.5-0.1,0.7-0.2c1.5-0.4,3.1-0.6,4.8-0.6c0.8,0,1.6,0.1,2.4,0.1
		c0.3,0,0.5,0.1,0.8,0.1c2.4,0.4,4.8,1.2,6.8,2.4c0.2,0.1,0.4,0.3,0.7,0.4c2.1,1.3,3.9,2.9,5.3,4.8c0.2,0.2,0.3,0.4,0.5,0.6
		c1.4,1.9,2.4,4.1,3.1,6.4c0.1,0.2,0.1,0.5,0.2,0.7c0.4,1.5,0.5,3.1,0.5,4.7c0,0.8,0,1.6-0.1,2.4c0,0.3-0.1,0.5-0.1,0.8
		c-0.4,2.4-1.2,4.7-2.3,6.7c-0.1,0.2-0.3,0.4-0.4,0.7C332.7,58.4,331.1,60.2,329.3,61.7z"/>
	<path class="st1" d="M319.1,46.7c0.1-0.2,0.1-0.5,0.1-0.8c0,0,0-0.1,0-0.1c0,0,0-0.1,0-0.1c0-0.3-0.1-0.5-0.1-0.8
		c0-0.1-0.1-0.2-0.1-0.2c-0.1-0.2-0.2-0.5-0.4-0.6c-0.1-0.1-0.1-0.1-0.2-0.2c-0.2-0.2-0.4-0.3-0.6-0.4c-0.1,0-0.2-0.1-0.3-0.1
		c-0.2-0.1-0.5-0.1-0.8-0.2c-0.1,0-0.1,0-0.2,0c-0.1,0-0.1,0-0.2,0c-0.3,0-0.5,0.1-0.8,0.2c-0.1,0-0.2,0.1-0.3,0.2
		c-0.2,0.1-0.4,0.3-0.6,0.5c-0.1,0.1-0.2,0.2-0.3,0.3c-0.2,0.2-0.3,0.4-0.4,0.7c0,0.1-0.1,0.2-0.1,0.4c0,0.2-0.1,0.4-0.1,0.6
		c0,0.1,0,0.1,0,0.2c0,0.1,0,0.2,0,0.4c0.1,0.3,0.1,0.5,0.3,0.7c0.1,0.1,0.1,0.2,0.2,0.3c0.1,0.2,0.3,0.4,0.5,0.6
		c0.1,0.1,0.2,0.1,0.2,0.2c0.2,0.1,0.4,0.2,0.7,0.3c0.1,0,0.2,0,0.3,0.1c0.2,0,0.3,0.1,0.5,0.1c0.1,0,0.2,0,0.3,0c0.1,0,0.1,0,0.2,0
		c0.3,0,0.5-0.1,0.7-0.2c0.1,0,0.1-0.1,0.2-0.1c0.2-0.1,0.4-0.3,0.6-0.5c0,0,0.1-0.1,0.1-0.1c0.2-0.2,0.3-0.4,0.4-0.7
		C319.1,46.9,319.1,46.8,319.1,46.7z"/>
</g>
<path class="st2" d="M28.9,51.7c0,4.4-3.3,7.7-9.8,10c-1.3,0.5-3.7,0.9-7.2,1.4c-0.2,0-0.5,0-0.9,0c-1.1,0-1.9-0.2-2.4-0.5
	c-1-0.6-2-1.8-3.2-3.5c-1.2-1.9-1.9-3.3-1.9-4.3c0-0.4,0.1-0.7,0.2-1c1.1,0.1,2.3,0.1,3.4,0.1c3.5,0,6.2-0.2,8.1-0.7
	c-1.3-0.3-2.4-0.6-3.3-0.9c-2.8-0.9-4.6-1.6-5.4-2.1c-1.8-1.1-2.7-2.7-2.7-4.8c0-0.8,0.2-1.7,0.5-2.7c0.6-1.8,1.4-3.2,2.4-4.4
	c1.8-2,4-3.5,6.8-4.7c2.7-1.2,5.4-1.8,8.1-1.8c1.3,0,2.6,0.2,3.8,0.5c0.7,0.6,1.4,1.7,2.1,3.1c0.7,1.4,1.1,2.6,1.1,3.5
	c0,0.9-0.2,1.5-0.6,1.8c-0.5-0.2-1-0.2-1.5-0.2c-1.1,0-3.1,0.4-5.9,1.3c-3.2,0.9-4.8,1.8-4.8,2.5c0,0.3,0.7,0.5,2,0.7
	c0.8,0.1,1.6,0.2,2.5,0.3c2.6,0.5,4.5,1.1,5.7,1.8C27.9,48,28.9,49.6,28.9,51.7z"/>
<path class="st2" d="M58.4,34.3c0-0.1-0.1,2.1-0.4,6.5c-0.5,7.7-0.7,14.6-0.7,20.6c-0.9,1-2.9,1.6-6.2,1.6c-1.9,0-3.1-0.2-3.6-0.6
	c-0.7-0.5-1-1.6-1-3.4c0-0.6,0-1.4,0.1-2.6c0.1-1.1,0.1-2,0.1-2.5v-0.5c-1,0.1-2.7,0.2-5,0.3c0,0.9,0,2.2,0,3.9c0,1.8,0,3.1,0,3.9
	c-0.9,0.9-2.9,1.3-5.7,1.3c-2.4,0-4-0.3-4.6-1c-0.5-0.5-0.7-2.6-0.7-6.3c0-5.3,0.3-12.6,0.8-21.8c3.4-1.2,6.4-1.8,8.9-1.8
	c1.5,0,2.2,0.5,2.2,1.6c0-0.1-0.1,0.7-0.2,2.3c-0.2,2.5-0.4,5.7-0.6,9.5c1.9-0.2,3.6-0.3,5.1-0.3c0.1-4.4,0.3-8.5,0.6-12.1
	c2.7-0.8,4.9-1.2,6.7-1.2c1.3,0,2.3,0.1,2.9,0.4C57.9,32.5,58.4,33.2,58.4,34.3z"/>
<path class="st2" d="M92.4,59.8c0,0.4-0.1,0.7-0.3,1c-0.9,1-2.2,1.7-3.9,2.2c-1.4,0.4-3,0.6-4.5,0.6c-0.7,0-1.4-0.1-2.2-0.4
	c-0.3-0.1-0.8-1.1-1.6-2.9c-0.5-1.3-0.9-2.4-1.2-3.4C75,57,71.7,57.2,69,57.4c-0.8,2.3-1.5,4.1-2,5.5C66.7,63,66.2,63,65.6,63
	c-1.5,0-3.2-0.4-5-1.1c-2.1-0.9-3.4-1.9-3.7-3.1c2.5-6.4,6.1-14.2,10.9-23.2c0.4-0.7,0.7-1.2,0.8-1.4c0.4-0.5,0.8-0.8,1.3-1
	c2.9-1,6-1.5,9.3-1.5c1,0,1.9,0.2,2.8,0.5c1.6,4,4,10,7.1,17.9c0.4,1,1.3,3.8,2.9,8.4C92.3,59.2,92.4,59.6,92.4,59.8z M76.4,49.3
	c-0.4-1.3-1-3.2-1.9-5.7c-0.9,2.3-1.7,4.3-2.5,5.9L76.4,49.3z"/>
<path class="st2" d="M121,40c0,1.3-0.4,2.5-1.1,3.5c-0.4,0.5-1.2,1.4-2.6,2.7c-1.1,1.1-2.1,1.9-3.1,2.5c2,3.6,4,7.4,6.1,11.4v0.4
	c0,0.2,0,0.5-0.1,0.7c-0.5,1.1-1.4,2-2.7,2.7c-1.2,0.7-2.5,1.1-3.7,1.1c-0.6,0-1.1-0.1-1.6-0.2c-2.8-4-5.6-8.3-8.5-12.9
	c0.1,3.6,0.2,6.5,0.5,8.6c-0.4,0.5-1.1,1-2.2,1.4c-0.9,0.3-1.8,0.5-2.6,0.5c-2.8,0-4.5-0.6-5.3-1.8c-0.5-5.9-0.8-11-0.8-15.2
	c0-1.3,0-2.6,0.1-3.8h-0.3c-1,0-1.5-1.6-1.5-4.8c0-1.8,0.1-2.9,0.4-3.1c0.9-0.7,3.5-1.3,7.9-1.6c3.2-0.3,6-0.5,8.5-0.5
	c2.9,0,5.5,0.5,7.5,1.5c2.6,1.2,4.2,3.1,4.8,5.6C121,39.2,121,39.6,121,40z M110,40c0-0.4-0.4-0.5-1.3-0.5c-1.4,0-2.9,0.2-4.5,0.5
	l-0.2,4.8c1-0.4,2.1-1.1,3.4-2C109.2,41.6,110,40.7,110,40z"/>
<path class="st2" d="M146.4,36.8c0,1.1-0.2,1.7-0.7,2c-3.4,0.7-7.2,1.4-11.6,2.1l0,1.8l9.3-0.2c1.2,1.1,1.8,2.5,1.8,4.2
	c0,0.9-0.3,1.5-0.8,1.8c-0.5,0.3-2.2,0.7-5,1.3c-1.8,0.3-3.5,0.7-5.3,1l-0.2,3.6c6.3-0.5,9.7-0.7,10.2-0.7c0.3,0,0.5,0,0.6,0.1
	c0.5,0.2,0.9,0.9,1.2,2.2c0.3,1,0.4,1.9,0.4,2.7c0,0.4-0.1,0.7-0.3,0.9c-0.3,0.3-2.3,1-6.1,2.1c-3.8,1.1-6,1.7-6.7,1.7
	c-1,0-2.6-0.6-5-1.7c-2.4-1.2-3.8-2.2-4-3c-0.1-0.2-0.1-0.5-0.1-1c0-0.3,0-0.7,0.1-1.2c0-0.5,0.1-0.8,0.1-1
	c0.2-5.8,0.4-10.4,0.6-13.8c-0.1,0-0.3,0-0.5,0c-0.7,0-1.1-0.1-1.2-0.2c-0.7-0.7-1-2.4-1-5c0-1.1,0.1-2.1,0.4-3.2l8-0.5
	c6.7-0.4,11-0.6,12.8-0.6c0.8,0,1.3,0,1.4,0c0.4,0.1,0.8,0.8,1.1,2.1C146.3,35.3,146.4,36.1,146.4,36.8z"/>
<path class="st2" d="M196.2,36.2c0,1.7-0.4,3.1-1.1,4.4c-1.9-0.1-3.7-0.1-5.6-0.1c-1.7,0-3.4,0-5.1,0.1c1.1,0.5,2,1,2.6,1.6
	c-0.3,1.1-0.6,3.9-0.8,8.3c-0.2,3.4-0.2,6.4-0.2,8.9c0,0.5,0,1.3,0.1,2.2c-1,0.9-2.7,1.3-5,1.3c-1.9,0-3.7-0.5-5.2-1.6
	c-0.3-2.8-0.5-5.7-0.5-8.5c0-1.5,0.2-5.4,0.5-11.7c-3.7,0.6-6.2,1-7.3,1c-0.7,0-1.2-0.2-1.4-0.5c-0.3-0.4-0.5-1.7-0.5-3.9
	c0-1.6,0.2-3.1,0.5-4.6c5.5-0.7,13.3-1,23.4-1c2.1,0,3.6,0,4.7,0C195.9,33.3,196.2,34.6,196.2,36.2z"/>
<path class="st2" d="M223.8,34.3c0-0.1-0.1,2.1-0.4,6.5c-0.5,7.7-0.7,14.6-0.7,20.6c-0.9,1-2.9,1.6-6.2,1.6c-1.9,0-3.1-0.2-3.6-0.6
	c-0.7-0.5-1-1.6-1-3.4c0-0.6,0-1.4,0.1-2.6c0.1-1.1,0.1-2,0.1-2.5v-0.5c-1,0.1-2.7,0.2-5,0.3c0,0.9,0,2.2,0,3.9c0,1.8,0,3.1,0,3.9
	c-0.9,0.9-2.9,1.3-5.8,1.3c-2.4,0-4-0.3-4.6-1c-0.5-0.5-0.7-2.6-0.7-6.3c0-5.3,0.3-12.6,0.8-21.8c3.4-1.2,6.4-1.8,8.9-1.8
	c1.5,0,2.2,0.5,2.2,1.6c0-0.1-0.1,0.7-0.2,2.3c-0.2,2.5-0.4,5.7-0.6,9.5c1.9-0.2,3.6-0.3,5.1-0.3c0.1-4.4,0.3-8.5,0.6-12.1
	c2.7-0.8,4.9-1.2,6.7-1.2c1.3,0,2.3,0.1,2.9,0.4C223.4,32.5,223.8,33.2,223.8,34.3z"/>
<path class="st2" d="M250,36.8c0,1.1-0.2,1.7-0.7,2c-3.4,0.7-7.2,1.4-11.6,2.1l0,1.8l9.3-0.2c1.2,1.1,1.8,2.5,1.8,4.2
	c0,0.9-0.3,1.5-0.8,1.8c-0.5,0.3-2.2,0.7-5,1.3c-1.8,0.3-3.5,0.7-5.3,1l-0.2,3.6c6.3-0.5,9.7-0.7,10.2-0.7c0.3,0,0.5,0,0.6,0.1
	c0.5,0.2,0.9,0.9,1.2,2.2c0.3,1,0.4,1.9,0.4,2.7c0,0.4-0.1,0.7-0.3,0.9c-0.3,0.3-2.3,1-6.1,2.1c-3.8,1.1-6,1.7-6.7,1.7
	c-1,0-2.6-0.6-4.9-1.7c-2.4-1.2-3.8-2.2-4-3c-0.1-0.2-0.1-0.5-0.1-1c0-0.3,0-0.7,0.1-1.2c0-0.5,0.1-0.8,0.1-1
	c0.2-5.8,0.4-10.4,0.6-13.8c-0.1,0-0.3,0-0.5,0c-0.7,0-1.1-0.1-1.2-0.2c-0.7-0.7-1-2.4-1-5c0-1.1,0.1-2.1,0.4-3.2l8-0.5
	c6.7-0.4,11-0.6,12.8-0.6c0.8,0,1.3,0,1.4,0c0.4,0.1,0.8,0.8,1.1,2.1C249.9,35.3,250,36.1,250,36.8z"/>
<path class="st2" d="M301.9,40c0,1.3-0.4,2.5-1.1,3.5c-0.4,0.5-1.2,1.4-2.6,2.7c-1.1,1.1-2.1,1.9-3.1,2.5c2,3.6,4,7.4,6.1,11.4v0.4
	c0,0.2,0,0.5-0.1,0.7c-0.5,1.1-1.4,2-2.7,2.7c-1.2,0.7-2.5,1.1-3.7,1.1c-0.6,0-1.1-0.1-1.6-0.2c-2.8-4-5.6-8.3-8.5-12.9
	c0.1,3.6,0.2,6.5,0.5,8.6c-0.4,0.5-1.1,1-2.2,1.4c-0.9,0.3-1.8,0.5-2.6,0.5c-2.8,0-4.5-0.6-5.3-1.8c-0.5-5.9-0.8-11-0.8-15.2
	c0-1.3,0-2.6,0.1-3.8H274c-1,0-1.5-1.6-1.5-4.8c0-1.8,0.1-2.9,0.4-3.1c0.9-0.7,3.5-1.3,7.9-1.6c3.2-0.3,6-0.5,8.5-0.5
	c2.9,0,5.5,0.5,7.5,1.5c2.6,1.2,4.2,3.1,4.8,5.6C301.9,39.2,301.9,39.6,301.9,40z M290.9,40c0-0.4-0.4-0.5-1.3-0.5
	c-1.4,0-2.9,0.2-4.5,0.5l-0.2,4.8c1-0.4,2.1-1.1,3.4-2C290.1,41.6,290.9,40.7,290.9,40z"/>
<path class="st2" d="M369.2,59.8c0,0.4-0.1,0.7-0.3,1c-0.9,1-2.2,1.7-3.9,2.2c-1.4,0.4-3,0.6-4.5,0.6c-0.7,0-1.4-0.1-2.2-0.4
	c-0.3-0.1-0.8-1.1-1.6-2.9c-0.5-1.3-0.9-2.4-1.2-3.4c-3.8,0.1-7.1,0.3-9.7,0.5c-0.8,2.3-1.5,4.1-2,5.5c-0.3,0.1-0.8,0.1-1.4,0.1
	c-1.5,0-3.2-0.4-5-1.1c-2.1-0.9-3.4-1.9-3.7-3.1c2.5-6.4,6.1-14.2,10.9-23.2c0.4-0.7,0.7-1.2,0.8-1.4c0.4-0.5,0.8-0.8,1.3-1
	c2.9-1,6-1.5,9.3-1.5c1,0,1.9,0.2,2.8,0.5c1.6,4,4,10,7.1,17.9c0.4,1,1.3,3.8,2.9,8.4C369.1,59.2,369.2,59.6,369.2,59.8z
	 M353.2,49.3c-0.4-1.3-1-3.2-1.9-5.7c-0.9,2.3-1.7,4.3-2.5,5.9L353.2,49.3z"/>
<path class="st2" d="M396,42.6c0,2.6-0.7,5.2-2,7.7c-1,1.9-2.6,4-4.8,6.4c-1.1,1.2-3.4,3-6.9,5.4c-0.7,0.5-1.5,0.8-2.3,0.8
	c-1.5,0-3.3-0.3-5.4-0.8c-2.5-0.7-4-1.5-4.5-2.4c-0.2-0.4-0.3-1.1-0.3-2c0-5.4,0.1-10.5,0.4-15.3h-0.4c-0.9,0-1.4-0.4-1.6-1.1
	c-0.1-0.3-0.1-1-0.1-2.2c0-2.1,0.1-3.4,0.3-3.9c0.2-0.4,0.5-0.8,1-1c1.2-0.5,3.7-1,7.3-1.4c3.2-0.4,5.7-0.6,7.6-0.6
	c3.5,0,6.2,0.9,8.3,2.6C394.9,36.6,396,39.2,396,42.6z M385.5,43.4c0-1.5-1.3-2.2-4-2.2c-0.9,0-1.7,0.1-2.6,0.2l-0.5,12.2
	c1.5-0.8,3-2.3,4.6-4.5C384.7,46.9,385.5,45,385.5,43.4z"/>
</svg>
